<svg width="685" height="685" viewBox="0 0 685 685" fill="none" xmlns="http://www.w3.org/2000/svg">
<circle cx="342.5" cy="342.5" r="342.5" fill="white"/>
<path d="M298.709 420.924C315.794 427.403 330.55 433 343 433C355.45 433 370.206 427.404 387.291 420.924C409.445 412.522 434.555 402.999 463.498 402.999C474.812 402.999 485.938 403.934 496.855 405.541C493.457 323.61 425.752 258 343 258C260.278 258 192.591 323.564 189.149 405.454C200.007 403.894 211.106 402.999 222.503 402.999C251.445 402.999 276.555 412.522 298.709 420.924Z" fill="#00AEEF"/>
<path d="M589.205 463.934L584.447 462.169C547.61 448.497 505.858 433 463.498 433C440.053 433 418.639 441.121 397.93 448.975C378.911 456.188 360.948 463 343.001 463C325.054 463 307.09 456.187 288.072 448.975C267.363 441.121 245.948 433 222.504 433C178.864 433 137.817 448.472 98.122 463.435L96.717 463.964C88.965 466.885 85.049 475.538 87.971 483.29C90.892 491.042 99.545 494.958 107.297 492.036L108.703 491.506C147.596 476.846 184.33 462.999 222.504 462.999C240.451 462.999 258.415 469.812 277.434 477.024C298.143 484.878 319.557 492.999 343.001 492.999C366.445 492.999 387.859 484.878 408.568 477.024C427.587 469.811 445.551 462.999 463.498 462.999C500.47 462.999 537.854 476.874 574.008 490.293L578.785 492.065C580.503 492.701 582.263 493.003 583.993 493.003C590.089 493.003 595.82 489.26 598.061 483.209C600.938 475.441 596.973 466.811 589.205 463.934V463.934Z" fill="#00AEEF"/>
<path d="M102 426.999H133C141.284 426.999 148 420.283 148 411.999C148 403.715 141.284 396.999 133 396.999H102C93.716 396.999 87 403.715 87 411.999C87 420.283 93.716 426.999 102 426.999Z" fill="#00AEEF"/>
<path d="M126.788 304.489L153.635 319.989C155.997 321.353 158.576 322.001 161.121 322.001C166.305 322.001 171.347 319.311 174.125 314.499C178.267 307.325 175.809 298.151 168.635 294.009L141.788 278.509C134.612 274.365 125.44 276.825 121.298 283.999C117.156 291.173 119.614 300.347 126.788 304.489V304.489Z" fill="#00AEEF"/>
<path d="M225.01 237.634C227.788 242.446 232.83 245.136 238.014 245.136C240.558 245.136 243.138 244.488 245.5 243.124C252.674 238.982 255.132 229.809 250.99 222.634L235.49 195.787C231.348 188.614 222.176 186.154 215 190.297C207.826 194.439 205.368 203.612 209.51 210.787L225.01 237.634Z" fill="#00AEEF"/>
<path d="M343 217C351.284 217 358 210.284 358 202V171C358 162.716 351.284 156 343 156C334.716 156 328 162.716 328 171V202C328 210.284 334.716 217 343 217Z" fill="#00AEEF"/>
<path d="M440.5 243.125C442.862 244.489 445.441 245.137 447.986 245.137C453.17 245.137 458.212 242.447 460.99 237.635L476.49 210.788C480.632 203.614 478.174 194.44 471 190.298C463.824 186.155 454.651 188.614 450.51 195.788L435.01 222.635C430.868 229.809 433.326 238.982 440.5 243.125Z" fill="#00AEEF"/>
<path d="M524.879 322.002C527.423 322.002 530.003 321.354 532.365 319.99L559.212 304.49C566.386 300.348 568.844 291.174 564.702 284C560.56 276.826 551.387 274.367 544.212 278.51L517.365 294.01C510.191 298.152 507.733 307.326 511.875 314.5C514.653 319.312 519.695 322.002 524.879 322.002Z" fill="#00AEEF"/>
<path d="M538 412C538 420.284 544.716 427 553 427H584C592.284 427 599 420.284 599 412C599 403.716 592.284 397 584 397H553C544.716 397 538 403.715 538 412Z" fill="#00AEEF"/>
<g filter="url(#filter0_d)">
<path d="M181.616 558.325C175.904 558.325 170.936 557.293 166.712 555.229C162.488 553.117 159.248 550.141 156.992 546.301C154.736 542.461 153.608 537.997 153.608 532.909C153.608 525.853 154.928 519.589 157.568 514.117C160.256 508.645 163.88 504.421 168.44 501.445C173 498.421 178.064 496.909 183.632 496.909C188.816 496.909 192.752 498.253 195.44 500.941C198.128 503.581 199.472 507.085 199.472 511.453C199.472 514.381 198.944 516.733 197.888 518.509C196.88 520.285 195.416 521.173 193.496 521.173C192.152 521.173 191.096 520.861 190.328 520.237C189.56 519.613 189.176 518.701 189.176 517.501C189.176 517.069 189.272 516.277 189.464 515.125C189.752 513.685 189.896 512.533 189.896 511.669C189.896 507.301 187.568 505.117 182.912 505.117C179.744 505.117 176.72 506.149 173.84 508.213C170.96 510.277 168.632 513.325 166.856 517.357C165.08 521.341 164.192 526.093 164.192 531.613C164.192 537.373 165.8 541.837 169.016 545.005C172.232 548.125 176.984 549.685 183.272 549.685C186.392 549.685 189.536 549.301 192.704 548.533C195.92 547.717 199.472 546.493 203.36 544.861C204.08 544.573 204.68 544.429 205.16 544.429C205.928 544.429 206.504 544.717 206.888 545.293C207.272 545.869 207.464 546.613 207.464 547.525C207.464 550.453 205.88 552.613 202.712 554.005C199.304 555.493 195.752 556.597 192.056 557.317C188.408 557.989 184.928 558.325 181.616 558.325ZM237.832 535.861C238.456 535.861 238.936 536.173 239.272 536.797C239.608 537.421 239.776 538.213 239.776 539.173C239.776 541.477 239.08 542.845 237.688 543.277C234.808 544.285 231.64 544.861 228.184 545.005C227.272 549.037 225.472 552.277 222.784 554.725C220.096 557.125 217.048 558.325 213.64 558.325C210.76 558.325 208.288 557.629 206.224 556.237C204.208 554.845 202.672 552.997 201.616 550.693C200.56 548.389 200.032 545.893 200.032 543.205C200.032 539.557 200.728 536.317 202.12 533.485C203.512 530.605 205.432 528.373 207.88 526.789C210.328 525.157 213.04 524.341 216.016 524.341C219.664 524.341 222.592 525.613 224.8 528.157C227.056 530.653 228.376 533.749 228.76 537.445C231.016 537.301 233.704 536.821 236.824 536.005C237.208 535.909 237.544 535.861 237.832 535.861ZM214.216 550.693C215.752 550.693 217.072 550.069 218.176 548.821C219.328 547.573 220.096 545.773 220.48 543.421C218.992 542.413 217.84 541.093 217.024 539.461C216.256 537.829 215.872 536.101 215.872 534.277C215.872 533.509 215.944 532.741 216.088 531.973H215.728C213.808 531.973 212.2 532.909 210.904 534.781C209.656 536.605 209.032 539.197 209.032 542.557C209.032 545.197 209.536 547.213 210.544 548.605C211.6 549.997 212.824 550.693 214.216 550.693ZM238.709 558.325C236.885 558.325 235.589 557.365 234.821 555.445C234.101 553.525 233.741 550.453 233.741 546.229C233.741 539.989 234.629 534.061 236.405 528.445C236.837 527.053 237.533 526.045 238.493 525.421C239.501 524.749 240.893 524.413 242.669 524.413C243.629 524.413 244.301 524.533 244.685 524.773C245.069 525.013 245.261 525.469 245.261 526.141C245.261 526.909 244.901 528.637 244.181 531.325C243.701 533.245 243.317 534.925 243.029 536.365C242.741 537.757 242.501 539.509 242.309 541.621C243.605 537.877 245.141 534.709 246.917 532.117C248.741 529.525 250.589 527.605 252.461 526.357C254.381 525.061 256.181 524.413 257.861 524.413C259.541 524.413 260.717 524.797 261.389 525.565C262.109 526.333 262.469 527.509 262.469 529.093C262.469 530.629 262.013 533.413 261.101 537.445C260.717 539.173 260.453 540.469 260.309 541.333C262.709 535.429 265.373 531.133 268.301 528.445C271.229 525.757 273.965 524.413 276.509 524.413C279.629 524.413 281.189 525.973 281.189 529.093C281.189 530.965 280.661 534.349 279.605 539.245C278.693 543.421 278.237 546.181 278.237 547.525C278.237 549.445 278.933 550.405 280.325 550.405C281.285 550.405 282.413 549.829 283.709 548.677C285.053 547.477 286.829 545.557 289.037 542.917C289.613 542.245 290.261 541.909 290.981 541.909C291.605 541.909 292.085 542.197 292.421 542.773C292.805 543.349 292.997 544.141 292.997 545.149C292.997 547.069 292.541 548.557 291.629 549.613C289.565 552.157 287.333 554.245 284.933 555.877C282.581 557.509 279.893 558.325 276.869 558.325C274.421 558.325 272.573 557.629 271.325 556.237C270.077 554.797 269.453 552.733 269.453 550.045C269.453 548.701 269.789 546.301 270.461 542.845C271.085 539.821 271.397 537.733 271.397 536.581C271.397 535.813 271.133 535.429 270.605 535.429C269.981 535.429 269.093 536.245 267.941 537.877C266.789 539.461 265.637 541.573 264.485 544.213C263.333 546.853 262.397 549.637 261.677 552.565C261.149 554.869 260.525 556.405 259.805 557.173C259.133 557.941 258.029 558.325 256.493 558.325C254.909 558.325 253.709 557.581 252.893 556.093C252.125 554.557 251.741 552.709 251.741 550.549C251.741 548.725 251.981 546.085 252.461 542.629C252.845 539.557 253.037 537.541 253.037 536.581C253.037 535.813 252.773 535.429 252.245 535.429C251.525 535.429 250.613 536.293 249.509 538.021C248.405 539.749 247.325 541.957 246.269 544.645C245.261 547.333 244.445 549.973 243.821 552.565C243.293 554.821 242.669 556.357 241.949 557.173C241.277 557.941 240.197 558.325 238.709 558.325ZM296.607 519.661C294.591 519.661 293.079 519.205 292.071 518.293C291.063 517.333 290.559 516.013 290.559 514.333C290.559 512.653 291.207 511.261 292.503 510.157C293.847 509.005 295.503 508.429 297.471 508.429C299.247 508.429 300.687 508.861 301.791 509.725C302.895 510.589 303.447 511.813 303.447 513.397C303.447 515.317 302.823 516.853 301.575 518.005C300.327 519.109 298.671 519.661 296.607 519.661ZM296.031 558.325C292.911 558.325 290.631 557.221 289.191 555.013C287.799 552.805 287.103 549.877 287.103 546.229C287.103 544.069 287.367 541.309 287.895 537.949C288.471 534.541 289.191 531.373 290.055 528.445C290.487 526.909 291.063 525.853 291.783 525.277C292.503 524.701 293.655 524.413 295.239 524.413C297.687 524.413 298.911 525.229 298.911 526.861C298.911 528.061 298.455 530.845 297.543 535.213C296.391 540.493 295.815 544.069 295.815 545.941C295.815 547.381 296.007 548.485 296.391 549.253C296.775 550.021 297.423 550.405 298.335 550.405C299.199 550.405 300.279 549.805 301.575 548.605C302.871 547.405 304.599 545.509 306.759 542.917C307.335 542.245 307.983 541.909 308.703 541.909C309.327 541.909 309.807 542.197 310.143 542.773C310.527 543.349 310.719 544.141 310.719 545.149C310.719 547.069 310.263 548.557 309.351 549.613C304.599 555.421 300.159 558.325 296.031 558.325ZM310.006 558.325C308.182 558.325 306.886 557.365 306.118 555.445C305.398 553.525 305.038 550.453 305.038 546.229C305.038 539.989 305.926 534.061 307.702 528.445C308.134 527.053 308.83 526.045 309.79 525.421C310.798 524.749 312.19 524.413 313.966 524.413C314.926 524.413 315.598 524.533 315.982 524.773C316.366 525.013 316.558 525.469 316.558 526.141C316.558 526.909 316.198 528.637 315.478 531.325C314.998 533.245 314.614 534.925 314.326 536.365C314.038 537.805 313.798 539.581 313.606 541.693C315.19 537.565 316.966 534.205 318.934 531.613C320.902 529.021 322.822 527.173 324.694 526.069C326.614 524.965 328.366 524.413 329.95 524.413C333.07 524.413 334.63 525.973 334.63 529.093C334.63 530.965 334.102 534.349 333.046 539.245C332.134 543.421 331.678 546.181 331.678 547.525C331.678 549.445 332.374 550.405 333.766 550.405C334.726 550.405 335.854 549.829 337.15 548.677C338.494 547.477 340.27 545.557 342.478 542.917C343.054 542.245 343.702 541.909 344.422 541.909C345.046 541.909 345.526 542.197 345.862 542.773C346.246 543.349 346.438 544.141 346.438 545.149C346.438 547.069 345.982 548.557 345.07 549.613C343.006 552.157 340.774 554.245 338.374 555.877C336.022 557.509 333.334 558.325 330.31 558.325C327.862 558.325 326.014 557.629 324.766 556.237C323.518 554.797 322.894 552.733 322.894 550.045C322.894 548.701 323.23 546.301 323.902 542.845C324.526 539.821 324.838 537.733 324.838 536.581C324.838 535.813 324.574 535.429 324.046 535.429C323.422 535.429 322.534 536.245 321.382 537.877C320.278 539.461 319.126 541.573 317.926 544.213C316.774 546.853 315.838 549.637 315.118 552.565C314.59 554.821 313.966 556.357 313.246 557.173C312.574 557.941 311.494 558.325 310.006 558.325ZM365.02 526.789C366.22 526.789 367.06 526.981 367.54 527.365C368.068 527.701 368.332 528.397 368.332 529.453C368.332 530.029 368.308 530.485 368.26 530.821C368.068 532.309 367.468 536.149 366.46 542.341C365.74 546.517 365.284 549.277 365.092 550.621C363.268 563.005 360.796 572.773 357.676 579.925C354.604 587.125 350.476 590.725 345.292 590.725C342.844 590.725 340.852 589.957 339.316 588.421C337.78 586.933 337.012 584.965 337.012 582.517C337.012 579.109 338.356 575.437 341.044 571.501C343.732 567.613 348.772 562.813 356.164 557.101L356.596 554.293C355.78 555.589 354.7 556.597 353.356 557.317C352.06 557.989 350.764 558.325 349.468 558.325C346.492 558.325 344.116 557.245 342.34 555.085C340.564 552.925 339.676 550.093 339.676 546.589C339.676 542.749 340.564 539.125 342.34 535.717C344.116 532.261 346.468 529.501 349.396 527.437C352.372 525.325 355.516 524.269 358.828 524.269C359.884 524.269 360.58 524.485 360.916 524.917C361.3 525.301 361.612 526.021 361.852 527.077C362.764 526.885 363.82 526.789 365.02 526.789ZM352.06 551.053C353.164 551.053 354.22 550.381 355.228 549.037C356.236 547.693 356.956 545.773 357.388 543.277L359.692 530.965C357.724 531.013 355.9 531.781 354.22 533.269C352.54 534.709 351.196 536.629 350.188 539.029C349.18 541.429 348.676 543.973 348.676 546.661C348.676 548.149 348.964 549.253 349.54 549.973C350.164 550.693 351.004 551.053 352.06 551.053ZM346.084 583.741C347.284 583.741 348.628 582.301 350.116 579.421C351.652 576.541 353.116 571.957 354.508 565.669C350.812 568.837 348.148 571.693 346.516 574.237C344.884 576.781 344.068 579.013 344.068 580.933C344.068 581.749 344.212 582.421 344.5 582.949C344.836 583.477 345.364 583.741 346.084 583.741ZM412.099 558.541C405.715 558.541 400.603 557.341 396.763 554.941C392.923 552.493 391.003 548.773 391.003 543.781C391.003 541.141 391.459 539.125 392.371 537.733C393.283 536.341 394.627 535.645 396.403 535.645C397.699 535.645 398.755 535.981 399.571 536.653C400.387 537.325 400.795 538.189 400.795 539.245C400.795 540.205 400.723 541.045 400.579 541.765C400.579 541.957 400.531 542.293 400.435 542.773C400.387 543.253 400.363 543.757 400.363 544.285C400.363 546.445 401.443 548.053 403.603 549.109C405.811 550.165 408.883 550.693 412.819 550.693C416.899 550.693 420.091 549.973 422.395 548.533C424.699 547.045 425.851 544.981 425.851 542.341C425.851 540.709 425.323 539.317 424.267 538.165C423.211 536.965 421.891 535.981 420.307 535.213C418.723 534.397 416.491 533.413 413.611 532.261C409.915 530.821 406.891 529.453 404.539 528.157C402.235 526.861 400.243 525.109 398.563 522.901C396.931 520.645 396.115 517.861 396.115 514.549C396.115 511.093 397.027 508.021 398.851 505.333C400.723 502.645 403.387 500.557 406.843 499.069C410.347 497.581 414.451 496.837 419.155 496.837C422.659 496.837 425.875 497.365 428.803 498.421C431.731 499.429 434.059 500.989 435.787 503.101C437.563 505.213 438.451 507.805 438.451 510.877C438.451 513.901 437.995 516.181 437.083 517.717C436.171 519.253 434.827 520.021 433.051 520.021C431.803 520.021 430.747 519.637 429.883 518.869C429.067 518.101 428.659 517.189 428.659 516.133C428.659 515.221 428.731 514.381 428.875 513.613C429.019 512.173 429.091 511.261 429.091 510.877C429.091 508.861 428.107 507.325 426.139 506.269C424.171 505.213 421.723 504.685 418.795 504.685C414.667 504.685 411.499 505.453 409.291 506.989C407.131 508.477 406.051 510.589 406.051 513.325C406.051 515.149 406.603 516.709 407.707 518.005C408.859 519.301 410.275 520.381 411.955 521.245C413.635 522.109 415.987 523.141 419.011 524.341C422.659 525.829 425.587 527.173 427.795 528.373C430.003 529.573 431.875 531.205 433.411 533.269C434.995 535.333 435.787 537.877 435.787 540.901C435.787 546.565 433.627 550.933 429.307 554.005C425.035 557.029 419.299 558.541 412.099 558.541ZM478.653 535.861C479.277 535.861 479.757 536.173 480.093 536.797C480.429 537.421 480.597 538.213 480.597 539.173C480.597 541.477 479.901 542.845 478.509 543.277C475.629 544.285 472.461 544.861 469.005 545.005C468.093 549.037 466.293 552.277 463.605 554.725C460.917 557.125 457.869 558.325 454.461 558.325C451.581 558.325 449.109 557.629 447.045 556.237C445.029 554.845 443.493 552.997 442.437 550.693C441.381 548.389 440.853 545.893 440.853 543.205C440.853 539.557 441.549 536.317 442.941 533.485C444.333 530.605 446.253 528.373 448.701 526.789C451.149 525.157 453.861 524.341 456.837 524.341C460.485 524.341 463.413 525.613 465.621 528.157C467.877 530.653 469.197 533.749 469.581 537.445C471.837 537.301 474.525 536.821 477.645 536.005C478.029 535.909 478.365 535.861 478.653 535.861ZM455.037 550.693C456.573 550.693 457.893 550.069 458.997 548.821C460.149 547.573 460.917 545.773 461.301 543.421C459.813 542.413 458.661 541.093 457.845 539.461C457.077 537.829 456.693 536.101 456.693 534.277C456.693 533.509 456.765 532.741 456.909 531.973H456.549C454.629 531.973 453.021 532.909 451.725 534.781C450.477 536.605 449.853 539.197 449.853 542.557C449.853 545.197 450.357 547.213 451.365 548.605C452.421 549.997 453.645 550.693 455.037 550.693ZM511.137 535.861C511.761 535.861 512.241 536.173 512.577 536.797C512.913 537.421 513.081 538.213 513.081 539.173C513.081 541.477 512.385 542.845 510.993 543.277C508.113 544.285 504.945 544.861 501.489 545.005C500.577 549.037 498.777 552.277 496.089 554.725C493.401 557.125 490.353 558.325 486.945 558.325C484.065 558.325 481.593 557.629 479.529 556.237C477.513 554.845 475.977 552.997 474.921 550.693C473.865 548.389 473.337 545.893 473.337 543.205C473.337 539.557 474.033 536.317 475.425 533.485C476.817 530.605 478.737 528.373 481.185 526.789C483.633 525.157 486.345 524.341 489.321 524.341C492.969 524.341 495.897 525.613 498.105 528.157C500.361 530.653 501.681 533.749 502.065 537.445C504.321 537.301 507.009 536.821 510.129 536.005C510.513 535.909 510.849 535.861 511.137 535.861ZM487.521 550.693C489.057 550.693 490.377 550.069 491.481 548.821C492.633 547.573 493.401 545.773 493.785 543.421C492.297 542.413 491.145 541.093 490.329 539.461C489.561 537.829 489.177 536.101 489.177 534.277C489.177 533.509 489.249 532.741 489.393 531.973H489.033C487.113 531.973 485.505 532.909 484.209 534.781C482.961 536.605 482.337 539.197 482.337 542.557C482.337 545.197 482.841 547.213 483.849 548.605C484.905 549.997 486.129 550.693 487.521 550.693ZM512.013 558.325C510.189 558.325 508.893 557.365 508.125 555.445C507.405 553.525 507.045 550.453 507.045 546.229C507.045 539.989 507.933 534.061 509.709 528.445C510.141 527.053 510.837 526.045 511.797 525.421C512.805 524.749 514.197 524.413 515.973 524.413C516.933 524.413 517.605 524.533 517.989 524.773C518.373 525.013 518.565 525.469 518.565 526.141C518.565 526.909 518.205 528.637 517.485 531.325C517.005 533.245 516.621 534.925 516.333 536.365C516.045 537.805 515.805 539.581 515.613 541.693C517.197 537.565 518.973 534.205 520.941 531.613C522.909 529.021 524.829 527.173 526.701 526.069C528.621 524.965 530.373 524.413 531.957 524.413C533.493 524.413 534.645 524.821 535.413 525.637C536.229 526.405 536.637 527.557 536.637 529.093C536.637 530.341 536.373 532.693 535.845 536.149C535.365 539.077 534.981 541.861 534.693 544.501C534.405 547.093 534.261 549.997 534.261 553.213C534.261 555.037 533.877 556.357 533.109 557.173C532.389 557.941 531.189 558.325 529.509 558.325C527.925 558.325 526.773 557.917 526.053 557.101C525.333 556.285 524.973 555.061 524.973 553.429C524.973 551.509 525.309 548.341 525.981 543.925C526.557 540.085 526.845 537.637 526.845 536.581C526.845 535.813 526.581 535.429 526.053 535.429C525.429 535.429 524.541 536.245 523.389 537.877C522.285 539.461 521.133 541.573 519.933 544.213C518.781 546.853 517.845 549.637 517.125 552.565C516.597 554.821 515.973 556.357 515.253 557.173C514.581 557.941 513.501 558.325 512.013 558.325Z" fill="#00AEEF"/>
</g>
<defs>
<filter id="filter0_d" x="149.608" y="496.837" width="391.029" height="101.888" filterUnits="userSpaceOnUse" color-interpolation-filters="sRGB">
<feFlood flood-opacity="0" result="BackgroundImageFix"/>
<feColorMatrix in="SourceAlpha" type="matrix" values="0 0 0 0 0 0 0 0 0 0 0 0 0 0 0 0 0 0 127 0"/>
<feOffset dy="4"/>
<feGaussianBlur stdDeviation="2"/>
<feColorMatrix type="matrix" values="0 0 0 0 0 0 0 0 0 0 0 0 0 0 0 0 0 0 0.25 0"/>
<feBlend mode="normal" in2="BackgroundImageFix" result="effect1_dropShadow"/>
<feBlend mode="normal" in="SourceGraphic" in2="effect1_dropShadow" result="shape"/>
</filter>
</defs>
</svg>
